/* XPM */
static char *simple_xpm[] = {
    "30 20 2 1",
    "  c None",
    ". c #FF0000",
    "..............................",
    ".                            .",
    ".   ..                       .",
    ".   ..                       .",
    ".                            .",
    ".                            .",
    ".                            .",
    ".                            .",
    ".                            .",
    ".                            .",
    ".                            .",
    ".                            .",
    ".                            .",
    ".                            .",
    ".                            .",
    ".                            .",
    ".                            .",
    ".                            .",
    ".                            .",
    "..............................",
};